<?xml version="1.0" standalone="no"?><!DOCTYPE svg PUBLIC "-//W3C//DTD SVG 1.1//EN" "http://www.w3.org/Graphics/SVG/1.1/DTD/svg11.dtd"><svg t="1572842302205" class="icon" viewBox="0 0 1024 1024" version="1.1" xmlns="http://www.w3.org/2000/svg" p-id="819" xmlns:xlink="http://www.w3.org/1999/xlink" width="200" height="200"><defs><style type="text/css"></style></defs><path d="M389.461333 546.133333a17.066667 17.066667 0 0 1-17.066666-19.114666l13.482666-107.52-74.069333-79.018667a17.066667 17.066667 0 0 1 9.216-28.501333l106.496-20.48 52.394667-94.890667A17.066667 17.066667 0 0 1 494.933333 187.733333a17.066667 17.066667 0 0 1 15.018667 8.874667l52.394667 94.890667 106.496 20.48a17.066667 17.066667 0 0 1 9.216 28.501333l-74.069334 79.018667 13.482667 107.52a17.066667 17.066667 0 0 1-24.234667 17.066666L494.933333 498.517333l-98.304 46.08a17.066667 17.066667 0 0 1-7.168 1.536zM358.4 339.626667l58.368 62.293333a17.066667 17.066667 0 0 1 4.437333 13.824l-10.581333 85.333333 77.482667-36.352a17.066667 17.066667 0 0 1 14.506666 0l77.653334 35.84-10.581334-85.333333a17.066667 17.066667 0 0 1 4.437334-13.824L631.466667 339.626667l-83.456-15.36a17.066667 17.066667 0 0 1-11.776-8.533334L494.933333 240.128l-41.301333 74.752a17.066667 17.066667 0 0 1-11.776 8.533333z" fill="#2c2c2c" p-id="820"></path><path d="M768 82.432L856.234667 170.666667H768V82.432M733.866667 0v204.8h204.8L733.866667 0z" fill="#2c2c2c" p-id="821"></path><path d="M719.701333 34.133333L904.533333 218.965333V955.733333a34.133333 34.133333 0 0 1-34.133333 34.133334H153.6a34.133333 34.133333 0 0 1-34.133333-34.133334V68.266667a34.133333 34.133333 0 0 1 34.133333-34.133334h566.101333M733.866667 0H153.6a68.266667 68.266667 0 0 0-68.266667 68.266667v887.466666a68.266667 68.266667 0 0 0 68.266667 68.266667h716.8a68.266667 68.266667 0 0 0 68.266667-68.266667V204.8L733.866667 0z" fill="#2c2c2c" p-id="822"></path><path d="M716.8 682.666667H273.066667v34.133333h443.733333v-34.133333zM716.8 819.2H273.066667v34.133333h443.733333v-34.133333z" fill="#2c2c2c" p-id="823"></path></svg>