<?xml version="1.0" standalone="no"?><!DOCTYPE svg PUBLIC "-//W3C//DTD SVG 1.1//EN" "http://www.w3.org/Graphics/SVG/1.1/DTD/svg11.dtd"><svg t="1576035058288" class="icon" viewBox="0 0 1024 1024" version="1.1" xmlns="http://www.w3.org/2000/svg" p-id="1272" xmlns:xlink="http://www.w3.org/1999/xlink" width="200" height="200"><defs><style type="text/css"></style></defs><path d="M199.1424 896.9344H96.72704c-24.7424 0-44.8-20.0576-44.8-44.8V440.64896c0-117.86752 95.89248-213.76 213.76-213.76h69.09568c24.7424 0 44.8 20.0576 44.8 44.8s-20.0576 44.8-44.8 44.8h-69.09568c-68.46208 0-124.16 55.69792-124.16 124.16V807.3344h57.61536c24.7424 0 44.8 20.0576 44.8 44.8s-20.0576 44.8-44.8 44.8z" fill="#1296db" p-id="1273"></path><path d="M277.536 971.82592c-67.94624 0-123.22432-55.27808-123.22432-123.22304 0-67.94624 55.27808-123.22432 123.22432-123.22432 67.94624 0 123.22304 55.27808 123.22304 123.22432 0 67.94624-55.2768 123.22304-123.22304 123.22304z m0-156.84608c-18.5408 0-33.62432 15.08352-33.62432 33.62432s15.08352 33.62304 33.62432 33.62304c18.53952 0 33.62304-15.08224 33.62304-33.62304s-15.08224-33.62432-33.62304-33.62432z" fill="#1296db" p-id="1274"></path><path d="M465.85856 896.9344h-104.31872c-24.7424 0-44.8-20.0576-44.8-44.8s20.0576-44.8 44.8-44.8h59.51872V152.0128c0-55.05152 44.78848-99.84 99.84-99.84h406.37312c24.7424 0 44.8 20.0576 44.8 44.8s-20.0576 44.8-44.8 44.8H520.89856c-5.55136 0-10.24 4.68992-10.24 10.24v700.1216c0 24.74368-20.0576 44.8-44.8 44.8z" fill="#1296db" p-id="1275"></path><path d="M771.7248 274.88256H569.8048c-24.7424 0-44.8-20.0576-44.8-44.8s20.0576-44.8 44.8-44.8h201.92c24.7424 0 44.8 20.0576 44.8 44.8s-20.0576 44.8-44.8 44.8z" fill="#1296db" p-id="1276"></path><path d="M706.336 415.68256H569.8048c-24.7424 0-44.8-20.0576-44.8-44.8s20.0576-44.8 44.8-44.8h136.5312c24.7424 0 44.8 20.0576 44.8 44.8s-20.0576 44.8-44.8 44.8z" fill="#1296db" p-id="1277"></path><path d="M914.47296 731.28192h-201.92c-24.7424 0-44.8-20.0576-44.8-44.8s20.0576-44.8 44.8-44.8h201.92c24.7424 0 44.8 20.0576 44.8 44.8s-20.0576 44.8-44.8 44.8z" fill="#1296db" p-id="1278"></path><path d="M813.51296 832.24192c-24.7424 0-44.8-20.0576-44.8-44.8v-201.92c0-24.7424 20.0576-44.8 44.8-44.8s44.8 20.0576 44.8 44.8v201.92c0 24.74368-20.0576 44.8-44.8 44.8z" fill="#1296db" p-id="1279"></path></svg>