<?xml version="1.0" standalone="no"?><!DOCTYPE svg PUBLIC "-//W3C//DTD SVG 1.1//EN" "http://www.w3.org/Graphics/SVG/1.1/DTD/svg11.dtd"><svg t="1576054697315" class="icon" viewBox="0 0 1024 1024" version="1.1" xmlns="http://www.w3.org/2000/svg" p-id="3385" xmlns:xlink="http://www.w3.org/1999/xlink" width="200" height="200"><defs><style type="text/css"></style></defs><path d="M600 849H208c-17.6 0-32-14.4-32-32V209c0-17.6 14.4-32 32-32h472c17.6 0 32 14.4 32 32v256c0 17.7 14.3 32 32 32s32-14.3 32-32V209c0-52.8-43.2-96-96-96H208c-52.8 0-96 43.2-96 96v608c0 52.8 43.2 96 96 96h392c17.7 0 32-14.3 32-32s-14.3-32-32-32z" fill="#691FFF" p-id="3386"></path><path d="M880 713H776V609c0-17.6-14.4-32-32-32s-32 14.4-32 32v104H608c-17.6 0-32 14.4-32 32s14.4 32 32 32h104v104c0 17.6 14.4 32 32 32s32-14.4 32-32V777h104c17.6 0 32-14.4 32-32s-14.4-32-32-32z" fill="#E04DFF" p-id="3387"></path><path d="M600 361H288c-17.6 0-32-14.4-32-32s14.4-32 32-32h312c17.6 0 32 14.4 32 32s-14.4 32-32 32zM600 545H288c-17.6 0-32-14.4-32-32s14.4-32 32-32h312c17.6 0 32 14.4 32 32s-14.4 32-32 32zM412 729H288c-17.6 0-32-14.4-32-32s14.4-32 32-32h124c17.6 0 32 14.4 32 32s-14.4 32-32 32z" fill="#691FFF" p-id="3388"></path></svg>